<mxfile host="app.diagrams.net" modified="2023-04-04T15:44:55.433Z" agent="Mozilla/5.0 (Windows NT 10.0; Win64; x64) AppleWebKit/537.36 (KHTML, like Gecko) Chrome/111.0.0.0 Safari/537.36" etag="FVyoswf3sa4UoA_IsOAK" version="21.1.4" type="device">
  <diagram name="Страница 1" id="OyJNdMgOAb9wSf4vdIEL">
    <mxGraphModel dx="1099" dy="1757" grid="1" gridSize="10" guides="1" tooltips="1" connect="1" arrows="1" fold="1" page="1" pageScale="1" pageWidth="827" pageHeight="1169" math="0" shadow="0">
      <root>
        <mxCell id="0" />
        <mxCell id="1" parent="0" />
        <mxCell id="JlXDYf0qloFrfHkCpH7O-2" value="Program" style="swimlane;whiteSpace=wrap;html=1;" vertex="1" parent="1">
          <mxGeometry x="400" y="460" width="140" height="60" as="geometry" />
        </mxCell>
        <mxCell id="JlXDYf0qloFrfHkCpH7O-21" value="+Main(string[] args)" style="text;html=1;align=center;verticalAlign=middle;resizable=0;points=[];autosize=1;strokeColor=none;fillColor=none;" vertex="1" parent="JlXDYf0qloFrfHkCpH7O-2">
          <mxGeometry x="-5" y="20" width="130" height="30" as="geometry" />
        </mxCell>
        <mxCell id="JlXDYf0qloFrfHkCpH7O-3" value="Pump" style="swimlane;whiteSpace=wrap;html=1;" vertex="1" parent="1">
          <mxGeometry x="160" y="30" width="140" height="220" as="geometry" />
        </mxCell>
        <mxCell id="JlXDYf0qloFrfHkCpH7O-11" value="-power" style="text;html=1;align=center;verticalAlign=middle;resizable=0;points=[];autosize=1;strokeColor=none;fillColor=none;" vertex="1" parent="JlXDYf0qloFrfHkCpH7O-3">
          <mxGeometry y="20" width="60" height="30" as="geometry" />
        </mxCell>
        <mxCell id="JlXDYf0qloFrfHkCpH7O-12" value="-flowRate" style="text;html=1;align=center;verticalAlign=middle;resizable=0;points=[];autosize=1;strokeColor=none;fillColor=none;" vertex="1" parent="JlXDYf0qloFrfHkCpH7O-3">
          <mxGeometry x="5" y="50" width="70" height="30" as="geometry" />
        </mxCell>
        <mxCell id="JlXDYf0qloFrfHkCpH7O-22" value="+getpower" style="text;html=1;align=center;verticalAlign=middle;resizable=0;points=[];autosize=1;strokeColor=none;fillColor=none;" vertex="1" parent="JlXDYf0qloFrfHkCpH7O-3">
          <mxGeometry x="-5" y="80" width="80" height="30" as="geometry" />
        </mxCell>
        <mxCell id="JlXDYf0qloFrfHkCpH7O-23" value="+FlowRate" style="text;html=1;align=center;verticalAlign=middle;resizable=0;points=[];autosize=1;strokeColor=none;fillColor=none;" vertex="1" parent="JlXDYf0qloFrfHkCpH7O-3">
          <mxGeometry x="-5" y="130" width="80" height="30" as="geometry" />
        </mxCell>
        <mxCell id="JlXDYf0qloFrfHkCpH7O-25" value="+ToString()" style="text;html=1;align=center;verticalAlign=middle;resizable=0;points=[];autosize=1;strokeColor=none;fillColor=none;" vertex="1" parent="JlXDYf0qloFrfHkCpH7O-3">
          <mxGeometry x="-5" y="190" width="80" height="30" as="geometry" />
        </mxCell>
        <mxCell id="JlXDYf0qloFrfHkCpH7O-42" value="-setpower" style="text;html=1;align=center;verticalAlign=middle;resizable=0;points=[];autosize=1;strokeColor=none;fillColor=none;" vertex="1" parent="JlXDYf0qloFrfHkCpH7O-3">
          <mxGeometry x="-5" y="100" width="80" height="30" as="geometry" />
        </mxCell>
        <mxCell id="JlXDYf0qloFrfHkCpH7O-10" style="edgeStyle=orthogonalEdgeStyle;rounded=0;orthogonalLoop=1;jettySize=auto;html=1;exitX=0.5;exitY=1;exitDx=0;exitDy=0;entryX=0.5;entryY=0;entryDx=0;entryDy=0;" edge="1" parent="1" source="JlXDYf0qloFrfHkCpH7O-4" target="JlXDYf0qloFrfHkCpH7O-2">
          <mxGeometry relative="1" as="geometry" />
        </mxCell>
        <mxCell id="JlXDYf0qloFrfHkCpH7O-4" value="Simulator" style="swimlane;whiteSpace=wrap;html=1;" vertex="1" parent="1">
          <mxGeometry x="400" y="360" width="140" height="60" as="geometry" />
        </mxCell>
        <mxCell id="JlXDYf0qloFrfHkCpH7O-20" value="+Start()" style="text;html=1;align=center;verticalAlign=middle;resizable=0;points=[];autosize=1;strokeColor=none;fillColor=none;" vertex="1" parent="JlXDYf0qloFrfHkCpH7O-4">
          <mxGeometry y="25" width="60" height="30" as="geometry" />
        </mxCell>
        <mxCell id="JlXDYf0qloFrfHkCpH7O-5" value="User" style="swimlane;whiteSpace=wrap;html=1;" vertex="1" parent="1">
          <mxGeometry x="600" y="42.5" width="140" height="175" as="geometry" />
        </mxCell>
        <mxCell id="JlXDYf0qloFrfHkCpH7O-13" value="-nextId" style="text;html=1;align=center;verticalAlign=middle;resizable=0;points=[];autosize=1;strokeColor=none;fillColor=none;" vertex="1" parent="JlXDYf0qloFrfHkCpH7O-5">
          <mxGeometry y="20" width="60" height="30" as="geometry" />
        </mxCell>
        <mxCell id="JlXDYf0qloFrfHkCpH7O-14" value="-waterConsumption" style="text;html=1;align=center;verticalAlign=middle;resizable=0;points=[];autosize=1;strokeColor=none;fillColor=none;" vertex="1" parent="JlXDYf0qloFrfHkCpH7O-5">
          <mxGeometry y="50" width="130" height="30" as="geometry" />
        </mxCell>
        <mxCell id="JlXDYf0qloFrfHkCpH7O-19" value="" style="endArrow=none;html=1;rounded=0;exitX=0.004;exitY=1.1;exitDx=0;exitDy=0;exitPerimeter=0;" edge="1" parent="JlXDYf0qloFrfHkCpH7O-5">
          <mxGeometry width="50" height="50" relative="1" as="geometry">
            <mxPoint y="80" as="sourcePoint" />
            <mxPoint x="140" y="80" as="targetPoint" />
          </mxGeometry>
        </mxCell>
        <mxCell id="JlXDYf0qloFrfHkCpH7O-35" value="+getId" style="text;html=1;align=center;verticalAlign=middle;resizable=0;points=[];autosize=1;strokeColor=none;fillColor=none;" vertex="1" parent="JlXDYf0qloFrfHkCpH7O-5">
          <mxGeometry y="72.5" width="60" height="30" as="geometry" />
        </mxCell>
        <mxCell id="JlXDYf0qloFrfHkCpH7O-36" value="+WaterConsumption" style="text;html=1;align=center;verticalAlign=middle;resizable=0;points=[];autosize=1;strokeColor=none;fillColor=none;" vertex="1" parent="JlXDYf0qloFrfHkCpH7O-5">
          <mxGeometry y="110" width="130" height="30" as="geometry" />
        </mxCell>
        <mxCell id="JlXDYf0qloFrfHkCpH7O-37" value="+ToString()" style="text;html=1;align=center;verticalAlign=middle;resizable=0;points=[];autosize=1;strokeColor=none;fillColor=none;" vertex="1" parent="JlXDYf0qloFrfHkCpH7O-5">
          <mxGeometry y="140" width="80" height="30" as="geometry" />
        </mxCell>
        <mxCell id="JlXDYf0qloFrfHkCpH7O-38" value="" style="endArrow=diamondThin;endFill=0;endSize=24;html=1;rounded=0;exitX=-0.024;exitY=0.275;exitDx=0;exitDy=0;exitPerimeter=0;" edge="1" parent="JlXDYf0qloFrfHkCpH7O-5" source="JlXDYf0qloFrfHkCpH7O-35">
          <mxGeometry width="160" relative="1" as="geometry">
            <mxPoint x="-50" y="87.5" as="sourcePoint" />
            <mxPoint x="-60" y="80.5" as="targetPoint" />
          </mxGeometry>
        </mxCell>
        <mxCell id="JlXDYf0qloFrfHkCpH7O-53" value="-setId" style="text;html=1;align=center;verticalAlign=middle;resizable=0;points=[];autosize=1;strokeColor=none;fillColor=none;" vertex="1" parent="JlXDYf0qloFrfHkCpH7O-5">
          <mxGeometry x="5" y="87.5" width="50" height="30" as="geometry" />
        </mxCell>
        <mxCell id="JlXDYf0qloFrfHkCpH7O-6" value="WaterTower" style="swimlane;whiteSpace=wrap;html=1;" vertex="1" parent="1">
          <mxGeometry x="400" y="-37.5" width="140" height="357.5" as="geometry" />
        </mxCell>
        <mxCell id="JlXDYf0qloFrfHkCpH7O-15" value="-volume" style="text;html=1;align=center;verticalAlign=middle;resizable=0;points=[];autosize=1;strokeColor=none;fillColor=none;" vertex="1" parent="JlXDYf0qloFrfHkCpH7O-6">
          <mxGeometry y="20" width="70" height="30" as="geometry" />
        </mxCell>
        <mxCell id="JlXDYf0qloFrfHkCpH7O-16" value="-currentVolume" style="text;html=1;align=center;verticalAlign=middle;resizable=0;points=[];autosize=1;strokeColor=none;fillColor=none;" vertex="1" parent="JlXDYf0qloFrfHkCpH7O-6">
          <mxGeometry x="5" y="45" width="100" height="30" as="geometry" />
        </mxCell>
        <mxCell id="JlXDYf0qloFrfHkCpH7O-18" value="" style="endArrow=none;html=1;rounded=0;exitX=0.004;exitY=1.1;exitDx=0;exitDy=0;exitPerimeter=0;" edge="1" parent="JlXDYf0qloFrfHkCpH7O-6">
          <mxGeometry width="50" height="50" relative="1" as="geometry">
            <mxPoint y="95" as="sourcePoint" />
            <mxPoint x="140" y="95" as="targetPoint" />
          </mxGeometry>
        </mxCell>
        <mxCell id="JlXDYf0qloFrfHkCpH7O-27" value="+getVolume" style="text;html=1;align=center;verticalAlign=middle;resizable=0;points=[];autosize=1;strokeColor=none;fillColor=none;" vertex="1" parent="JlXDYf0qloFrfHkCpH7O-6">
          <mxGeometry x="-5" y="97.5" width="90" height="30" as="geometry" />
        </mxCell>
        <mxCell id="JlXDYf0qloFrfHkCpH7O-28" value="+getCurrentVolume" style="text;html=1;align=center;verticalAlign=middle;resizable=0;points=[];autosize=1;strokeColor=none;fillColor=none;" vertex="1" parent="JlXDYf0qloFrfHkCpH7O-6">
          <mxGeometry y="137.5" width="130" height="30" as="geometry" />
        </mxCell>
        <mxCell id="JlXDYf0qloFrfHkCpH7O-29" value="+List&amp;lt;User&amp;gt; Users" style="text;html=1;align=center;verticalAlign=middle;resizable=0;points=[];autosize=1;strokeColor=none;fillColor=none;" vertex="1" parent="JlXDYf0qloFrfHkCpH7O-6">
          <mxGeometry y="187.5" width="120" height="30" as="geometry" />
        </mxCell>
        <mxCell id="JlXDYf0qloFrfHkCpH7O-30" value="+ConnectUser()" style="text;html=1;align=center;verticalAlign=middle;resizable=0;points=[];autosize=1;strokeColor=none;fillColor=none;" vertex="1" parent="JlXDYf0qloFrfHkCpH7O-6">
          <mxGeometry x="-5" y="217.5" width="110" height="30" as="geometry" />
        </mxCell>
        <mxCell id="JlXDYf0qloFrfHkCpH7O-31" value="+DisconnectUser()" style="text;html=1;align=center;verticalAlign=middle;resizable=0;points=[];autosize=1;strokeColor=none;fillColor=none;" vertex="1" parent="JlXDYf0qloFrfHkCpH7O-6">
          <mxGeometry y="242.5" width="120" height="30" as="geometry" />
        </mxCell>
        <mxCell id="JlXDYf0qloFrfHkCpH7O-32" value="&amp;nbsp;+CheckVolume()" style="text;html=1;align=center;verticalAlign=middle;resizable=0;points=[];autosize=1;strokeColor=none;fillColor=none;" vertex="1" parent="JlXDYf0qloFrfHkCpH7O-6">
          <mxGeometry x="-5" y="267.5" width="120" height="30" as="geometry" />
        </mxCell>
        <mxCell id="JlXDYf0qloFrfHkCpH7O-33" value="&amp;nbsp;+GiveWater()" style="text;html=1;align=center;verticalAlign=middle;resizable=0;points=[];autosize=1;strokeColor=none;fillColor=none;" vertex="1" parent="JlXDYf0qloFrfHkCpH7O-6">
          <mxGeometry x="-5" y="292.5" width="100" height="30" as="geometry" />
        </mxCell>
        <mxCell id="JlXDYf0qloFrfHkCpH7O-34" value="+ToString()" style="text;html=1;align=center;verticalAlign=middle;resizable=0;points=[];autosize=1;strokeColor=none;fillColor=none;" vertex="1" parent="JlXDYf0qloFrfHkCpH7O-6">
          <mxGeometry y="327.5" width="80" height="30" as="geometry" />
        </mxCell>
        <mxCell id="JlXDYf0qloFrfHkCpH7O-43" value="-setVolume" style="text;html=1;align=center;verticalAlign=middle;resizable=0;points=[];autosize=1;strokeColor=none;fillColor=none;" vertex="1" parent="JlXDYf0qloFrfHkCpH7O-6">
          <mxGeometry y="117.5" width="80" height="30" as="geometry" />
        </mxCell>
        <mxCell id="JlXDYf0qloFrfHkCpH7O-54" value="-setCurrentVolume" style="text;html=1;align=center;verticalAlign=middle;resizable=0;points=[];autosize=1;strokeColor=none;fillColor=none;" vertex="1" parent="JlXDYf0qloFrfHkCpH7O-6">
          <mxGeometry x="5" y="163.75" width="120" height="30" as="geometry" />
        </mxCell>
        <mxCell id="JlXDYf0qloFrfHkCpH7O-17" value="" style="endArrow=none;html=1;rounded=0;" edge="1" parent="1">
          <mxGeometry width="50" height="50" relative="1" as="geometry">
            <mxPoint x="160" y="113" as="sourcePoint" />
            <mxPoint x="300" y="113" as="targetPoint" />
          </mxGeometry>
        </mxCell>
        <mxCell id="JlXDYf0qloFrfHkCpH7O-24" value="+Work()" style="text;html=1;align=center;verticalAlign=middle;resizable=0;points=[];autosize=1;strokeColor=none;fillColor=none;" vertex="1" parent="1">
          <mxGeometry x="155" y="185" width="70" height="30" as="geometry" />
        </mxCell>
        <mxCell id="JlXDYf0qloFrfHkCpH7O-26" value="-pump" style="text;html=1;align=center;verticalAlign=middle;resizable=0;points=[];autosize=1;strokeColor=none;fillColor=none;" vertex="1" parent="1">
          <mxGeometry x="400" y="32.5" width="60" height="30" as="geometry" />
        </mxCell>
        <mxCell id="JlXDYf0qloFrfHkCpH7O-39" value="" style="endArrow=diamondThin;endFill=0;endSize=24;html=1;rounded=0;entryX=0.009;entryY=0.979;entryDx=0;entryDy=0;entryPerimeter=0;" edge="1" parent="1" target="JlXDYf0qloFrfHkCpH7O-28">
          <mxGeometry width="160" relative="1" as="geometry">
            <mxPoint x="300" y="128" as="sourcePoint" />
            <mxPoint x="340" y="120" as="targetPoint" />
          </mxGeometry>
        </mxCell>
        <mxCell id="JlXDYf0qloFrfHkCpH7O-40" value="" style="endArrow=diamondThin;endFill=1;endSize=24;html=1;rounded=0;exitX=0.861;exitY=0.976;exitDx=0;exitDy=0;exitPerimeter=0;entryX=0.5;entryY=0;entryDx=0;entryDy=0;" edge="1" parent="1" source="JlXDYf0qloFrfHkCpH7O-34" target="JlXDYf0qloFrfHkCpH7O-4">
          <mxGeometry width="160" relative="1" as="geometry">
            <mxPoint x="460" y="370" as="sourcePoint" />
            <mxPoint x="500" y="340" as="targetPoint" />
          </mxGeometry>
        </mxCell>
        <mxCell id="JlXDYf0qloFrfHkCpH7O-41" value="" style="endArrow=diamondThin;endFill=1;endSize=24;html=1;rounded=0;exitX=0.969;exitY=0.972;exitDx=0;exitDy=0;exitPerimeter=0;entryX=-0.009;entryY=-0.041;entryDx=0;entryDy=0;entryPerimeter=0;" edge="1" parent="1" source="JlXDYf0qloFrfHkCpH7O-25" target="JlXDYf0qloFrfHkCpH7O-20">
          <mxGeometry width="160" relative="1" as="geometry">
            <mxPoint x="360" y="340" as="sourcePoint" />
            <mxPoint x="361" y="403" as="targetPoint" />
            <Array as="points">
              <mxPoint x="233" y="384" />
            </Array>
          </mxGeometry>
        </mxCell>
      </root>
    </mxGraphModel>
  </diagram>
</mxfile>
